# xmcd
#
# Track frame offsets:
#	150
#	24933
#	51512
#	84731
#	103623
#	129333
#	154720
#	181544
#	211393
#	240637
#	264761
#	294116
#
# Disc length: 4241 seconds
#
# Revision: 3
# Processed by: cddbd v1.5.2PL0 Copyright (c) Steve Scherf et al.
# Submitted via: EasyCDDAExtractor 12.0.1.1
#
DISCID=92108f0c
DTITLE=Digital Empire - Armageddon
DYEAR=2003
DGENRE=Electronic
TTITLE0=Rob Gee - Ecstacy U Got What I Need
TTITLE1=Leadfoot - Dead Zone
TTITLE2=JL - The Shredder
TTITLE3=Drawbacks - Square Roots
TTITLE4=Influx - Misery
TTITLE5=Datcyde - How We Shine
TTITLE6=King Size - Dragon
TTITLE7=Joey Jupiter - Fructose [2003 Remix]
TTITLE8=DJ Odi - Keep On Pushin' On
TTITLE9=T.M.F. - Got to Be Free [BKNY Remix]
TTITLE10=Fresh - Techno Mondo
TTITLE11=Bitfiendz - Busy Dying
EXTD=YEAR: 2003
EXTT0=
EXTT1=
EXTT2=
EXTT3=
EXTT4=
EXTT5=
EXTT6=
EXTT7=
EXTT8=
EXTT9=
EXTT10=
EXTT11=
PLAYORDER=
